<svg xmlns="http://www.w3.org/2000/svg" version="1.1" xmlns:xlink="http://www.w3.org/1999/xlink" xmlns:svgjs="http://svgjs.dev/svgjs" viewBox="0 0 800 800"><defs><filter id="ssspot-filter" x="-20%" y="-20%" width="140%" height="140%" filterUnits="objectBoundingBox" primitiveUnits="userSpaceOnUse" color-interpolation-filters="sRGB">
	<feTurbulence type="turbulence" baseFrequency="0.022 0.218" numOctaves="2" seed="294" stitchTiles="stitch" x="0%" y="0%" width="100%" height="100%" result="turbulence"></feTurbulence>
	<feGaussianBlur stdDeviation="0 3" x="0%" y="0%" width="100%" height="100%" in="turbulence" edgeMode="duplicate" result="blur"></feGaussianBlur>
	<feDisplacementMap in="SourceGraphic" in2="blur" scale="32" xChannelSelector="R" yChannelSelector="B" x="0%" y="0%" width="100%" height="100%" result="displacementMap"></feDisplacementMap>
</filter></defs><rect width="100%" height="100%" fill="transparent"></rect><g fill="hsl(223, 48%, 15%)" filter="url(#ssspot-filter)"><circle r="9.38341287556844" cx="710.4146545720478" cy="674.8230411824974" opacity="0.7908166960224431"></circle><circle r="10.263923329101498" cx="449.8780936678988" cy="421.7306417648478" opacity="0.9703842455514117"></circle><circle r="7.025065456207317" cx="83.51224223832186" cy="745.8736030967356" opacity="0.24565585202633977"></circle><circle r="7.293098055743361" cx="44.354051031021115" cy="272.81082921716734" opacity="0.6511811843593341"></circle><circle r="6.668326222084079" cx="685.2456341179901" cy="408.9315323310857" opacity="0.5006114839590261"></circle><circle r="5.280980041306718" cx="269.1778277900305" cy="401.11238783796625" opacity="0.440542342406263"></circle><circle r="8.14975650327488" cx="685.8500247699644" cy="371.74690526113903" opacity="0.5186059847963291"></circle><circle r="5.9365467662150975" cx="461.1010426296698" cy="780.0336088426528" opacity="0.9810701129042941"></circle><circle r="6.472795811499276" cx="100.6206299340127" cy="157.07834850063128" opacity="0.236736487073591"></circle><circle r="6.734462131176917" cx="446.7761683721853" cy="19.185409623145482" opacity="0.23623678172704546"></circle><circle r="7.590833461929234" cx="612.9307836393674" cy="632.3331689093887" opacity="0.28066382548158164"></circle><circle r="7.044481927855779" cx="750.1943148103492" cy="577.1379398434785" opacity="0.26353884512181613"></circle><circle r="8.13064162609566" cx="745.7609960312781" cy="483.50592485599117" opacity="0.7193028065509853"></circle><circle r="5.93131021529388" cx="342.3669025208125" cy="453.07468500242106" opacity="0.5381528686985753"></circle><circle r="10.116719817823029" cx="253.57906545205879" cy="310.256234272705" opacity="0.7261362538772299"></circle><circle r="5.138266576261051" cx="311.21117713928567" cy="441.7323101270861" opacity="0.6321590488514637"></circle><circle r="6.201201846660579" cx="230.74811718884334" cy="110.35095362834838" opacity="0.19521171678724103"></circle><circle r="9.935168285103401" cx="102.10990507463615" cy="325.86930741644886" opacity="0.6991906742293702"></circle><circle r="7.992819915371582" cx="240.3362114377743" cy="701.8614224180166" opacity="0.9612459956243375"></circle><circle r="8.809902337055544" cx="749.9047062327204" cy="121.79669514505893" opacity="0.8305573458720158"></circle><circle r="5.407109331984615" cx="617.9966126212856" cy="163.84694953756468" opacity="0.8597743036301801"></circle><circle r="6.262781231002433" cx="19.34952563307921" cy="44.10853187589707" opacity="0.37455587120470435"></circle><circle r="7.062663539349174" cx="79.41655832821324" cy="697.0725397307854" opacity="0.3586999522774791"></circle><circle r="4.365052011817667" cx="41.792696508689524" cy="15.51453721625117" opacity="0.6105975889870631"></circle><circle r="4.9987811705723235" cx="387.78069516477564" cy="248.5787957244414" opacity="0.3478279279977513"></circle><circle r="9.591650431463343" cx="538.8506921677455" cy="664.7698713798936" opacity="0.16897074154490271"></circle><circle r="5.401629215162952" cx="327.9585963116225" cy="328.1281361030723" opacity="0.5251656679633915"></circle><circle r="7.092494146649956" cx="625.1693511067108" cy="779.4905211049902" opacity="0.24079327087096303"></circle><circle r="6.746877901234836" cx="748.7037090578647" cy="13.884392537304475" opacity="0.5672045139640909"></circle><circle r="9.80885322290565" cx="751.3820378741455" cy="636.7392830286506" opacity="0.9956142318676653"></circle><circle r="5.002863991744931" cx="332.118923731083" cy="665.8875237255987" opacity="0.6622153848594391"></circle><circle r="9.945855868492917" cx="28.76334912165399" cy="612.1850293945478" opacity="0.9910694431148515"></circle><circle r="4.940791403934329" cx="177.58922147895862" cy="129.2502198389526" opacity="0.24206931354114428"></circle><circle r="5.992169915315587" cx="675.12791048153" cy="184.71054604132448" opacity="0.9541559596533535"></circle><circle r="7.28923791576992" cx="475.7540241804465" cy="381.37281947436975" opacity="0.5088396996419022"></circle><circle r="8.047480425394372" cx="385.47551140878755" cy="496.5688400947656" opacity="0.1041333811936705"></circle><circle r="6.293044682210412" cx="572.1678239134695" cy="97.9953319762914" opacity="0.535164139497959"></circle><circle r="9.088348680897827" cx="519.0739277502686" cy="242.675214060058" opacity="0.11648194827429989"></circle><circle r="6.194626899100495" cx="751.8915752433155" cy="781.3300685842926" opacity="0.1960670186079983"></circle><circle r="5.783513024095725" cx="684.6590758844064" cy="548.7824486959652" opacity="0.32816235153426077"></circle><circle r="6.143387957467411" cx="696.2709078436557" cy="16.97704578272325" opacity="0.14314027267452517"></circle><circle r="7.035584485852886" cx="21.309635614055793" cy="418.2275811917191" opacity="0.6727121190486253"></circle><circle r="7.4639937046390195" cx="342.3407907082008" cy="718.9065140121171" opacity="0.9386037838842437"></circle><circle r="6.8146326672063715" cx="535.0303218281485" cy="128.75175672517275" opacity="0.9340014538404853"></circle><circle r="5.090952457474062" cx="729.6363301438306" cy="371.21926254044325" opacity="0.7183067176695551"></circle><circle r="6.394456103251916" cx="405.19422997085206" cy="466.2747572219759" opacity="0.8283850634521231"></circle><circle r="5.484861415241992" cx="35.306237760755174" cy="549.8750884812941" opacity="0.8001177224921853"></circle><circle r="6.395333223381795" cx="118.22739374559328" cy="415.22117540186383" opacity="0.3857872115989881"></circle><circle r="7.134846360945067" cx="589.3424712586888" cy="28.540296977785253" opacity="0.7720690445459014"></circle><circle r="10.100668187545226" cx="178.63042842011194" cy="262.7214406723166" opacity="0.23677139335197497"></circle><circle r="7.8894534735931945" cx="351.10976615773643" cy="586.8066812728803" opacity="0.16868568396843486"></circle><circle r="4.989617925317086" cx="752.8957464939995" cy="224.05600719342843" opacity="0.3809339561502987"></circle><circle r="7.212237180862463" cx="763.510780512923" cy="87.06421224501601" opacity="0.18114476489318881"></circle><circle r="9.73595868334709" cx="513.2799273807458" cy="164.80113625485032" opacity="0.4516949898996162"></circle><circle r="7.984159701171287" cx="683.0174056300915" cy="59.159048603316975" opacity="0.31281882896296054"></circle><circle r="6.666554323913449" cx="686.9399357172525" cy="116.24322590990047" opacity="0.29561936869914757"></circle><circle r="5.619109821028729" cx="132.84524999183745" cy="453.62935195467503" opacity="0.10967814933032899"></circle><circle r="4.081214899063918" cx="786.1434580779818" cy="561.3928742794889" opacity="0.562305816955387"></circle><circle r="11.573691525702085" cx="344.01367208006684" cy="235.1250392215911" opacity="0.9396627719738636"></circle><circle r="5.353528844918027" cx="568.3497720119346" cy="62.571993614843315" opacity="0.37923662546246306"></circle><circle r="5.948521145148967" cx="274.59725876042114" cy="72.3781715166562" opacity="0.6359754135902781"></circle><circle r="7.9590792737134395" cx="678.3080874750909" cy="257.26820465380064" opacity="0.8900005186023291"></circle><circle r="3.353535041996637" cx="260.91491264655946" cy="137.50366012580167" opacity="0.2186484470832039"></circle><circle r="6.203461665417468" cx="252.06340838788944" cy="92.19654888821972" opacity="0.7855455234095778"></circle><circle r="4.350778158883077" cx="368.50415608939875" cy="16.599236833954926" opacity="0.7190724737312578"></circle><circle r="3.915824494989457" cx="473.13792442396687" cy="25.859354990365286" opacity="0.4485002264478273"></circle><circle r="6.7912929139712315" cx="283.1209875835623" cy="742.3639240701613" opacity="0.48607655652224824"></circle><circle r="9.816584435516619" cx="460.31328183411387" cy="732.0467086631764" opacity="0.46096929195522773"></circle><circle r="7.068191248931499" cx="433.42654552728317" cy="136.75055630243634" opacity="0.9553636714540985"></circle><circle r="7.517796407581946" cx="314.2533522578865" cy="52.751217714834034" opacity="0.9240055095426172"></circle><circle r="14.0700272913268" cx="196.16896616750884" cy="498.35011760347953" opacity="0.35464109815896727"></circle><circle r="5.908273519245899" cx="235.745457367142" cy="208.86521897254772" opacity="0.3480770193250189"></circle><circle r="8.743250903434923" cx="574.2244551231106" cy="566.4364670722001" opacity="0.31073333008990994"></circle><circle r="4.2891068979908304" cx="282.63820093722586" cy="429.3955780169568" opacity="0.5858287898180548"></circle><circle r="5.565488997022116" cx="430.0036033737596" cy="259.3313359805501" opacity="0.9407533668575347"></circle><circle r="6.319017527464673" cx="480.95556580462625" cy="520.4872753548907" opacity="0.5592777995734162"></circle><circle r="9.228168493464533" cx="78.90575149023515" cy="239.89096637777467" opacity="0.936895572460025"></circle><circle r="7.09899474172631" cx="535.0537176250768" cy="706.3076089571946" opacity="0.5628692329163891"></circle><circle r="9.902937662503103" cx="367.212625789057" cy="321.466834304943" opacity="0.7081794428836506"></circle><circle r="10.251401927729841" cx="530.6575914217838" cy="534.9775874575973" opacity="0.3483842025426265"></circle><circle r="5.58021549393127" cx="687.8433471360656" cy="743.9921617179839" opacity="0.26012036559354007"></circle><circle r="4.534449656984962" cx="425.0165016867267" cy="46.738477558740236" opacity="0.4258793062138443"></circle><circle r="7.761535506135182" cx="531.4510472901596" cy="319.675577007115" opacity="0.2976496051483891"></circle><circle r="8.521095196425694" cx="756.811750653332" cy="333.41199146873214" opacity="0.35203652432681176"></circle><circle r="10.9714447354826" cx="633.7146642230907" cy="114.59247247411619" opacity="0.9680262002294555"></circle><circle r="7.187210597540293" cx="180.62647899369497" cy="321.4316354759276" opacity="0.7526144862873191"></circle><circle r="6.96462271793922" cx="150.82805118927513" cy="539.364528032221" opacity="0.640004957456393"></circle><circle r="8.883813182556086" cx="510.5132933827861" cy="354.1638296908832" opacity="0.7461991804352615"></circle><circle r="7.651351940131711" cx="328.85165596226295" cy="18.97619711247013" opacity="0.9090280854510516"></circle><circle r="6.967174360458403" cx="146.67160445156173" cy="701.4764914315458" opacity="0.9312422953589831"></circle><circle r="4.497731893997772" cx="15.36906913045338" cy="576.5863282720042" opacity="0.617832384971601"></circle><circle r="5.3761930718514" cx="41.3369504185017" cy="778.9135393585314" opacity="0.20621360034628944"></circle><circle r="6.257080451887076" cx="282.8516035575618" cy="264.71459416563425" opacity="0.9429342709292866"></circle><circle r="6.162606523276651" cx="594.4237495126741" cy="766.4860437797518" opacity="0.8322896984687599"></circle><circle r="5.268939935359315" cx="703.3289465430292" cy="298.7521632702346" opacity="0.681279691752754"></circle><circle r="10.630551755702836" cx="279.68582521936025" cy="678.0448039840425" opacity="0.893569505973499"></circle><circle r="6.471294018646392" cx="17.83560208166841" cy="112.68147798856546" opacity="0.39216254852828125"></circle><circle r="5.209670963280804" cx="169.92091317833447" cy="220.5556099783161" opacity="0.3996116068272051"></circle><circle r="4.605480531145807" cx="784.8483919688989" cy="408.908823775412" opacity="0.22618980989554766"></circle><circle r="5.480938487500338" cx="191.91419854833964" cy="561.6028766003232" opacity="0.7145702331583573"></circle><circle r="7.511749248145357" cx="110.50065575131443" cy="370.0274445692778" opacity="0.1497862768927543"></circle><circle r="10.113806993897075" cx="657.9103143567595" cy="666.9413658605151" opacity="0.8192514805053751"></circle><circle r="9.516952296447633" cx="572.6270625073654" cy="513.7248742232957" opacity="0.4589541150088364"></circle><circle r="7.344437748025863" cx="661.562817444923" cy="778.1737471783773" opacity="0.8459596440962437"></circle><circle r="8.828560525067687" cx="483.88309163630095" cy="135.722508894419" opacity="0.40622292788666314"></circle><circle r="5.708582076643385" cx="395.8437735434339" cy="156.12408012226936" opacity="0.40043135807269525"></circle><circle r="6.610281936516735" cx="390.49132514469557" cy="360.70566496943076" opacity="0.45004955820432024"></circle><circle r="6.475555329809333" cx="781.317025421377" cy="609.8098773530955" opacity="0.3799096311533534"></circle><circle r="8.082136454604548" cx="303.6776049459316" cy="145.50969392770753" opacity="0.988120000979389"></circle><circle r="11.562172946495378" cx="633.9910819783913" cy="406.5096217604101" opacity="0.6646885926687239"></circle><circle r="7.609356869444216" cx="563.271770300625" cy="227.3756744706171" opacity="0.13465909193070602"></circle><circle r="5.860590532032345" cx="502.8259911837655" cy="559.4307350628602" opacity="0.22007670102671123"></circle><circle r="5.402665291907526" cx="703.0939347504361" cy="436.7333904029109" opacity="0.6641259681730475"></circle><circle r="6.7307179993373065" cx="361.53373462131407" cy="642.6249018714916" opacity="0.12594785749060688"></circle><circle r="5.045128392344358" cx="720.1239172145423" cy="261.79305616407066" opacity="0.36077571011245446"></circle><circle r="6.942420584142306" cx="65.95715224721624" cy="197.15506027612628" opacity="0.24943278957633025"></circle><circle r="4.391995577579886" cx="322.8700976542105" cy="408.37729152303405" opacity="0.6218971166360486"></circle><circle r="7.488420334674708" cx="709.6076048194947" cy="467.98745531491886" opacity="0.25000580686953194"></circle><circle r="6.306098333941063" cx="560.4381377560042" cy="167.91792167059148" opacity="0.6252506215578426"></circle><circle r="4.691328403012144" cx="113.314525379288" cy="195.55653266360738" opacity="0.7008526742067801"></circle><circle r="9.58479006355983" cx="319.092496701729" cy="283.5176728469557" opacity="0.32431683714295867"></circle><circle r="6.626605456051837" cx="748.9685400725778" cy="282.1054170994194" opacity="0.14202302032570574"></circle><circle r="3.3075099902159417" cx="787.111797252129" cy="14.819193580508156" opacity="0.801461972682652"></circle><circle r="3.157888240313859" cx="219.71338081732708" cy="789.9031746808347" opacity="0.6785240926665685"></circle><circle r="5.5338198514799215" cx="717.2005051190508" cy="592.5912658308208" opacity="0.34840087272491194"></circle><circle r="5.147518678264266" cx="176.0940506831558" cy="662.0384163844624" opacity="0.7271372346937558"></circle><circle r="9.202433707534702" cx="129.0795593793292" cy="118.7068165478701" opacity="0.5736065751888132"></circle><circle r="9.089025597940443" cx="458.41524691819956" cy="339.1417452230261" opacity="0.660170056447081"></circle><circle r="10.274930635162203" cx="139.58514942499446" cy="638.3684714731487" opacity="0.9055408857841591"></circle><circle r="5.476634848216295" cx="617.278275248662" cy="569.8686772326919" opacity="0.4495014224120265"></circle><circle r="8.011459381061535" cx="490.39676873490487" cy="297.61515845230645" opacity="0.6041603496515559"></circle><circle r="6.906256578030183" cx="430.25498495602716" cy="382.6956554435686" opacity="0.40141155200571565"></circle><circle r="4.206978732153862" cx="746.9838472150691" cy="67.42336692807687" opacity="0.6258790834896055"></circle><circle r="12.381455573179743" cx="101.3341967919123" cy="539.4734092336234" opacity="0.6742939599970462"></circle><circle r="5.758093335958154" cx="725.689150432407" cy="326.3108861584081" opacity="0.10269086189676832"></circle><circle r="14.803955488359911" cx="269.1019218737745" cy="527.34922159393" opacity="0.7413327944775885"></circle><circle r="7.208393442132358" cx="173.6282234698266" cy="443.87887117177803" opacity="0.6147389454336721"></circle><circle r="6.813793237808876" cx="51.66059027440891" cy="358.95436928783784" opacity="0.5011554012897532"></circle><circle r="4.3925530939026425" cx="147.7588546175629" cy="787.9988393661124" opacity="0.7041911170313213"></circle><circle r="10.220921648434953" cx="66.3248425567249" cy="465.1633806473359" opacity="0.954454449561068"></circle><circle r="8.068673615602325" cx="777.1019870630644" cy="189.09480127663713" opacity="0.5780719576347224"></circle><circle r="8.382891778710455" cx="358.24484131809373" cy="419.0053567624947" opacity="0.20332270071357417"></circle><circle r="10.729869461361623" cx="210.74787425748698" cy="292.23246816381936" opacity="0.5027109893342141"></circle><circle r="11.514597744941092" cx="412.60532499807675" cy="771.6103261347043" opacity="0.6599297181759669"></circle><circle r="6.096783043866228" cx="496.00428165287656" cy="678.4712374141183" opacity="0.9833328395600073"></circle><circle r="8.611526733766983" cx="124.00536624766096" cy="239.2202833210098" opacity="0.7065453414593217"></circle><circle r="7.89668557411079" cx="234.07515914360332" cy="580.8047508403458" opacity="0.8988933349404161"></circle><circle r="8.744229470267154" cx="22.143039888686474" cy="237.36737515183276" opacity="0.7179990540137379"></circle><circle r="6.966809258729523" cx="629.9130455324063" cy="690.9549410633728" opacity="0.5454490997065856"></circle><circle r="6.396317849261147" cx="484.83089076305833" cy="449.47354848020353" opacity="0.4115182402029539"></circle><circle r="9.46515915460359" cx="551.345476389984" cy="470.4346332002493" opacity="0.7532415878376971"></circle><circle r="6.269211068737396" cx="388.7573709846561" cy="641.5816164877458" opacity="0.3725972591053349"></circle><circle r="11.559717398274415" cx="83.34003962224816" cy="38.114444426514055" opacity="0.34751825722953267"></circle><circle r="9.523695795504779" cx="740.6793964640249" cy="421.91502175144643" opacity="0.7974786868700613"></circle><circle r="8.123723822821834" cx="634.2071191169948" cy="68.84203205949869" opacity="0.5326771214948676"></circle><circle r="9.463218770103914" cx="187.62120334248206" cy="618.9106313170398" opacity="0.9021717648831787"></circle><circle r="6.200136154357535" cx="204.77141724795334" cy="42.5785104676793" opacity="0.29283688082331316"></circle><circle r="5.570741398083681" cx="472.70037021182935" cy="575.1136915122821" opacity="0.45137431164362185"></circle><circle r="6.72481847519305" cx="199.53920559308355" cy="688.5961113368992" opacity="0.8041504442862635"></circle><circle r="9.085055961565907" cx="659.7126779723476" cy="725.8029426422647" opacity="0.6162043220475496"></circle><circle r="9.346749104761122" cx="390.79480020191613" cy="726.6311039244731" opacity="0.7445475491587277"></circle><circle r="4.86258246693519" cx="375.7460493460473" cy="452.91388637725066" opacity="0.608168350451039"></circle><circle r="4.332072877253905" cx="252.0068047606928" cy="178.93931669712123" opacity="0.6500311498224618"></circle><circle r="5.358795076359262" cx="371.44434334350143" cy="388.7712894131703" opacity="0.9776093230776353"></circle><circle r="4.495523404338426" cx="764.6074731562868" cy="383.7715812812359" opacity="0.533215340136245"></circle><circle r="8.880915203631467" cx="717.2810902289324" cy="524.2079406156492" opacity="0.4262787016507972"></circle><circle r="5.196227528373331" cx="204.7902285103896" cy="229.7126234103499" opacity="0.6701228485111418"></circle><circle r="5.618972207543562" cx="433.1201028084189" cy="610.5243052372234" opacity="0.532368639825397"></circle><circle r="11.164501047589507" cx="635.6314367956264" cy="519.8446036347036" opacity="0.2102597639250549"></circle><circle r="5.430568211629547" cx="108.52525135170139" cy="661.6737811444365" opacity="0.3846637843377304"></circle><circle r="7.77489784334996" cx="521.1023467574543" cy="82.77953996492374" opacity="0.2529690999300106"></circle><circle r="10.062702371504283" cx="534.1135183148788" cy="199.9505837644464" opacity="0.1794652438026864"></circle><circle r="5.768066363927908" cx="14.476742302884219" cy="364.44242852523735" opacity="0.5704106289076798"></circle><circle r="4.735927557929413" cx="780.1745770238708" cy="148.44798239923026" opacity="0.6204550903138907"></circle><circle r="9.487636737640305" cx="649.5943146317871" cy="623.2797865728483" opacity="0.11778251828686054"></circle><circle r="11.795768724483793" cx="98.40922498757276" cy="590.1178469225318" opacity="0.4962848313289989"></circle><circle r="5.873895244163784" cx="289.43384006291353" cy="331.5830142383698" opacity="0.45231201289089795"></circle><circle r="6.279362014819743" cx="484.3820519296025" cy="197.9624907432843" opacity="0.3195272970065941"></circle><circle r="6.117935810613557" cx="453.2379102291336" cy="489.3616253690841" opacity="0.2574427524666345"></circle><circle r="8.571444338264316" cx="777.760306737584" cy="452.1060325689129" opacity="0.4927985007538762"></circle><circle r="3.435530179607503" cx="458.3156328679808" cy="597.9746942507967" opacity="0.7861132315091615"></circle><circle r="7.502104375425825" cx="473.4080542417172" cy="242.76593939210346" opacity="0.13218433853456402"></circle><circle r="10.250974972389297" cx="27.702896371884" cy="670.4745664647754" opacity="0.9959311138363067"></circle><circle r="6.426291975972703" cx="161.10671173538626" cy="397.6848298921781" opacity="0.24202975090566145"></circle><circle r="6.1204129152003945" cx="367.10469466169855" cy="55.814844793140225" opacity="0.3570586436186365"></circle><circle r="8.15125277284588" cx="370.1984658455494" cy="686.087942311391" opacity="0.5702617625597814"></circle><circle r="5.444216565899077" cx="635.426150105588" cy="19.846525127883027" opacity="0.6938632973524391"></circle><circle r="6.248534329749316" cx="446.9627830086111" cy="541.6071462462457" opacity="0.2722614127175177"></circle><circle r="9.327909055448664" cx="411.60954606592884" cy="569.5288952909253" opacity="0.34464362560350137"></circle><circle r="10.023324250961913" cx="579.2190141318289" cy="297.81788096581624" opacity="0.9404530169845886"></circle><circle r="7.281794319495857" cx="304.1956077629129" cy="710.6380593074285" opacity="0.3911606274628342"></circle><circle r="6.372228493872045" cx="576.250590513342" cy="627.3424038833589" opacity="0.6601822162560907"></circle><circle r="8.287890996064272" cx="230.16826786024842" cy="363.00185822268406" opacity="0.4503574572116572"></circle><circle r="7.965671877981286" cx="637.9155948407223" cy="358.98276543025344" opacity="0.23153541223182886"></circle><circle r="6.642614398327632" cx="435.21694956872153" cy="456.31128374372264" opacity="0.9746760163087512"></circle><circle r="7.780093485641028" cx="211.9200825820588" cy="134.12761338252966" opacity="0.33164562353124905"></circle><circle r="4.9419077590182106" cx="396.3837751940864" cy="607.0294011362479" opacity="0.5221201189241137"></circle><circle r="5.293413767811787" cx="92.21820001040345" cy="786.0467027832698" opacity="0.25603707437726897"></circle><circle r="6.476023901036171" cx="506.07106729489414" cy="13.93908356934956" opacity="0.35476692498096496"></circle><circle r="7.522116823888052" cx="378.15281140094385" cy="283.8522547114774" opacity="0.8962768201067214"></circle><circle r="7.756812305961438" cx="591.4534055499798" cy="191.58070810020706" opacity="0.1648013020152453"></circle><circle r="7.03567449042929" cx="604.7781163192977" cy="472.031971381469" opacity="0.5936737235865642"></circle><circle r="9.13233575773453" cx="661.0077498968975" cy="302.32852328542504" opacity="0.5939734330601826"></circle><circle r="6.527960464717499" cx="162.8225640175528" cy="159.07618379578244" opacity="0.7625225321911983"></circle><circle r="4.763394000092049" cx="396.71039803806525" cy="401.6723095432187" opacity="0.6700763002407765"></circle><circle r="10.639766882852062" cx="329.01079908142606" cy="521.0970224614606" opacity="0.4807115313211049"></circle><circle r="5.977924391288306" cx="161.2002710356799" cy="764.3886306766244" opacity="0.15418604533653968"></circle><circle r="7.407838948887569" cx="72.25717489919192" cy="107.4328140927662" opacity="0.1964876611900053"></circle><circle r="8.238966191532626" cx="551.7099402877232" cy="780.9501240749844" opacity="0.9778874532061642"></circle><circle r="8.792538648633403" cx="56.85539208704708" cy="425.50767895870257" opacity="0.5353425286970018"></circle><circle r="10.469915827107368" cx="218.35101034343887" cy="420.7487504249906" opacity="0.799194747573962"></circle><circle r="6.635224700496213" cx="785.3078608963065" cy="278.4081492285283" opacity="0.21823627684935024"></circle><circle r="8.037007490799068" cx="431.1202319742182" cy="300.68524209441307" opacity="0.8269945565117882"></circle><circle r="5.271718092654875" cx="177.35454824123826" cy="732.5565337112682" opacity="0.796168916841083"></circle><circle r="6.482079802620337" cx="115.81231137936075" cy="489.229904738245" opacity="0.2581390444615544"></circle><circle r="9.175162684382974" cx="775.5777219689303" cy="675.5765820591948" opacity="0.12433790632624322"></circle><circle r="6.093064396668945" cx="280.3145604724809" cy="24.634602212250943" opacity="0.2219130237242235"></circle><circle r="7.315883626044515" cx="583.7382290540387" cy="684.1920578361799" opacity="0.6025411751634125"></circle><circle r="9.446600540192636" cx="658.2037154611078" cy="581.0301721088315" opacity="0.30556479109400647"></circle><circle r="7.045515448701368" cx="424.27526250961336" cy="644.673064699306" opacity="0.9434732186375088"></circle><circle r="6.770693221369112" cx="782.6090935858404" cy="504.74415101944385" opacity="0.7692304514653905"></circle><circle r="10.196780718386709" cx="474.4896438367536" cy="636.7582454353727" opacity="0.11641783078906112"></circle><circle r="7.295603702876727" cx="766.1804528972023" cy="723.6582344978041" opacity="0.331648243595545"></circle><circle r="4.701066333123798" cx="196.425250677238" cy="772.3382471836907" opacity="0.16766948879206903"></circle><circle r="5.896112756105001" cx="146.75306373725758" cy="208.97235851140445" opacity="0.4861415996442473"></circle><circle r="4.859636909698298" cx="275.0298686459838" cy="365.2657163079891" opacity="0.1648633786874091"></circle><circle r="11.209582738654536" cx="24.852190438748643" cy="736.8254404327133" opacity="0.27949569732459945"></circle><circle r="5.432829240260979" cx="89.12304604466922" cy="422.93074197930065" opacity="0.7342869746817428"></circle><circle r="3.5703131350136883" cx="695.1404594920037" cy="770.103064914626" opacity="0.28176662047567347"></circle><circle r="6.341415797594166" cx="371.97903055598397" cy="540.0282479737398" opacity="0.41603093718566153"></circle><circle r="6.781616288936114" cx="691.8568054411995" cy="624.1253334678248" opacity="0.616670110961411"></circle><circle r="8.6043940664839" cx="682.2239832931832" cy="496.70947680793796" opacity="0.25997385318448685"></circle><circle r="6.446169650717165" cx="456.1842360548974" cy="672.4506463097342" opacity="0.3666001247169296"></circle><circle r="8.002507732071289" cx="242.82138869810765" cy="255.21657743904314" opacity="0.7239358820659992"></circle><circle r="11.203516638085954" cx="254.17844999655074" cy="469.1577089660211" opacity="0.5555561156936761"></circle><circle r="5.646666299305479" cx="346.211547182715" cy="111.87018672749728" opacity="0.5029120009661875"></circle><circle r="5.239968967015046" cx="739.8360302536108" cy="159.49319061241445" opacity="0.6658368746584105"></circle><circle r="8.030844403366665" cx="704.0055061868014" cy="157.82899950531996" opacity="0.1934063886529229"></circle><circle r="9.519314230644857" cx="244.04125239955232" cy="640.3033844422598" opacity="0.26940106999166236"></circle><circle r="9.776283436785553" cx="419.5049768357664" cy="83.55947223162799" opacity="0.5065260636110883"></circle><circle r="6.10265533621603" cx="551.8870285520857" cy="381.35830501179555" opacity="0.5093970066968534"></circle><circle r="11.113033461294897" cx="169.60064171730517" cy="77.93423739464149" opacity="0.21673031106386065"></circle><circle r="10.215009329385307" cx="19.565542176212254" cy="194.17306283827847" opacity="0.9115771381903122"></circle><circle r="7.178425409709378" cx="405.6429889044862" cy="16.95975643853235" opacity="0.6694912071210516"></circle><circle r="5.433797382158564" cx="711.6540190899891" cy="225.5776373255644" opacity="0.1918565008549068"></circle><circle r="4.594493204901496" cx="497.53185728576545" cy="50.5526304352304" opacity="0.2564830374392627"></circle><circle r="7.628382079199714" cx="215.97686140332596" cy="73.69369584780492" opacity="0.2665042061091613"></circle><circle r="5.65714350178423" cx="350.5551251718814" cy="367.97974628045097" opacity="0.5379166987573298"></circle><circle r="7.579468938004014" cx="309.2124418862421" cy="631.3368836928984" opacity="0.6683750207026434"></circle><circle r="7.04075842386427" cx="542.0494607189854" cy="277.5541810360641" opacity="0.9231928333051836"></circle><circle r="5.293171718083063" cx="418.7832955164034" cy="495.45950124118156" opacity="0.5790825345700747"></circle><circle r="6.22423465766424" cx="19.090200503294685" cy="478.08907914274243" opacity="0.35992576237691476"></circle><circle r="6.569925435988777" cx="246.3994843504835" cy="763.3124448731613" opacity="0.9835642604550539"></circle><circle r="5.237173448991404" cx="725.0806594608903" cy="50.58748908507985" opacity="0.4935728891648232"></circle><circle r="6.054400250550533" cx="589.1605861610534" cy="415.5357597154897" opacity="0.7255928362850088"></circle><circle r="7.901510886689157" cx="577.9008781042025" cy="349.82332252805855" opacity="0.8726862835433515"></circle><circle r="6.019050036797788" cx="605.3513568518898" cy="270.89974233907657" opacity="0.6191113503206206"></circle><circle r="9.58257537071917" cx="615.1238924187936" cy="324.92253928890887" opacity="0.9099219139215549"></circle><circle r="6.523288853491605" cx="672.5136902806555" cy="219.7605868887036" opacity="0.6476034998502136"></circle><circle r="7.903526954838165" cx="782.5148990676674" cy="242.59631255038974" opacity="0.5674434587645231"></circle><circle r="7.775016641039004" cx="117.15400351469991" cy="736.5910528846276" opacity="0.9686052009123346"></circle><circle r="5.963948759175304" cx="726.0649397857057" cy="768.1259607873517" opacity="0.44048996460200573"></circle><circle r="5.779043298069207" cx="716.1122093561903" cy="193.3555187768962" opacity="0.9163541501573265"></circle><circle r="5.161894680533765" cx="281.19819045857827" cy="197.08188239375613" opacity="0.3599763973302412"></circle><circle r="7.380466274047793" cx="781.1741381490758" cy="310.12053468232375" opacity="0.22715381456767805"></circle><circle r="10.738016425851935" cx="329.9819729858105" cy="186.7959693878057" opacity="0.4572965695935878"></circle><circle r="5.344847538101354" cx="201.37443547211407" cy="182.11059031795082" opacity="0.6615012890910168"></circle><circle r="9.144450808867507" cx="721.1447426914973" cy="98.23327732378671" opacity="0.3553881937608788"></circle><circle r="9.113303401797662" cx="380.2962194940851" cy="99.44312505103676" opacity="0.1502270955050723"></circle><circle r="9.89661711471825" cx="505.7089611734996" cy="486.26448004613724" opacity="0.7792223438306407"></circle><circle r="7.0006076532551775" cx="441.2702151895316" cy="189.65795067760808" opacity="0.6420411049608777"></circle><circle r="9.940763856358958" cx="752.982602949517" cy="537.34246517061" opacity="0.5679401982862536"></circle><circle r="3.6408286712981424" cx="139.07355500276466" cy="751.279838289495" opacity="0.15613661723542316"></circle><circle r="5.662392191046389" cx="624.6588803292683" cy="229.91418624250676" opacity="0.7900226821507488"></circle><circle r="9.616844273617325" cx="143.24392517106153" cy="591.9482280186252" opacity="0.8147482414425679"></circle><circle r="5.032549836727723" cx="771.8222193777718" cy="57.92302181689537" opacity="0.7791747056952658"></circle><circle r="9.702949127900485" cx="118.51535668484094" cy="69.46439411715512" opacity="0.30170972519578526"></circle><circle r="6.314152778431172" cx="143.41025972714857" cy="23.180231396516895" opacity="0.7871184800421356"></circle><circle r="9.968885205020545" cx="508.0340764112325" cy="408.9433542566704" opacity="0.17115063116287868"></circle><circle r="7.385877006894672" cx="783.8876018978101" cy="769.9504991604734" opacity="0.2786976443133393"></circle><circle r="8.285948278791409" cx="32.565070555737904" cy="80.40052229641981" opacity="0.7385580779565272"></circle><circle r="5.964732666150615" cx="716.2384840583221" cy="721.5056949801145" opacity="0.25614054544756437"></circle><circle r="5.018397748279471" cx="214.77164059032538" cy="736.0271508836773" opacity="0.20462055967997916"></circle><circle r="5.915069080966478" cx="55.14064103631402" cy="514.9634209139027" opacity="0.7334081559095033"></circle><circle r="5.2783332099331615" cx="435.11772725934964" cy="703.5264431889235" opacity="0.24180538471749533"></circle><circle r="8.19402552084618" cx="292.3771968968686" cy="584.1987244632605" opacity="0.8429631605747178"></circle><circle r="3.714362361424328" cx="146.73543518253382" cy="178.08105413956312" opacity="0.6987739081587072"></circle><circle r="6.087385779911449" cx="193.65083325035513" cy="14.601067375754734" opacity="0.8176347925936365"></circle><circle r="5.466473661834882" cx="681.8914085340907" cy="334.6594496483883" opacity="0.5927928200144887"></circle><circle r="5.843458043375511" cx="658.417699993192" cy="155.13988957472995" opacity="0.6775620685957291"></circle><circle r="7.892250316241071" cx="169.43706633371733" cy="359.52785971124564" opacity="0.16984720630734426"></circle><circle r="8.737457486762413" cx="240.98053953339863" cy="24.202647563523183" opacity="0.279650435842477"></circle><circle r="6.699497217925419" cx="69.10765850111287" cy="389.3580824387184" opacity="0.5018213794739321"></circle><circle r="5.4506682327087335" cx="412.59812184711546" cy="333.3863396552839" opacity="0.5902026099303199"></circle><circle r="3.8016105741621136" cx="256.3805875091271" cy="158.18814699354863" opacity="0.5906556987766846"></circle><circle r="6.654642888786834" cx="314.6652148513796" cy="373.0110974696151" opacity="0.8965469382980134"></circle><circle r="6.606406757902433" cx="357.01472203926045" cy="483.6622388767694" opacity="0.5077639627792614"></circle><circle r="5.637663200277858" cx="506.99076720041995" cy="602.6004432103899" opacity="0.2948206153354326"></circle><circle r="7.700630355937953" cx="34.999820944119925" cy="312.5297091973363" opacity="0.836159013370894"></circle><circle r="9.006925812384475" cx="503.4884440506163" cy="771.045359986916" opacity="0.46484375666722866"></circle><circle r="6.540154534960718" cx="641.4684775064799" cy="204.19151023836994" opacity="0.3605491493976263"></circle><circle r="5.332946971509804" cx="541.1944329766193" cy="432.2107373903113" opacity="0.9005193725639526"></circle><circle r="5.788890669669553" cx="639.510529875982" cy="274.24662240166754" opacity="0.8839488782850942"></circle><circle r="5.8234495231394225" cx="566.2333746059052" cy="735.3793566290767" opacity="0.9692679297865777"></circle><circle r="7.5994546396475116" cx="589.9713793768169" cy="240.2963224770603" opacity="0.9035325332912447"></circle><circle r="5.362698805017276" cx="408.00693470235376" cy="678.6064235712431" opacity="0.8410747019261142"></circle><circle r="8.167667770388016" cx="419.20063677776307" cy="226.4289931978402" opacity="0.6786529680045978"></circle><circle r="8.411017531959965" cx="125.21131546441323" cy="285.6425528673406" opacity="0.9131848686821221"></circle><circle r="7.69784059044146" cx="280.8196298405321" cy="784.4472571446852" opacity="0.9615989860970725"></circle><circle r="3.954759902655325" cx="790.963499619359" cy="48.977305741265255" opacity="0.6097372810667494"></circle><circle r="4.600953845522419" cx="515.5482012868137" cy="734.0160653279506" opacity="0.434716428935505"></circle><circle r="4.3396650237584256" cx="332.7194434184213" cy="141.16534395117858" opacity="0.12134085127149516"></circle><circle r="3.5678441496998596" cx="764.1122445940782" cy="35.3388241853139" opacity="0.4661986868119711"></circle><circle r="4.292617394645588" cx="413.4413831999382" cy="527.0329112715766" opacity="0.6565906446186702"></circle><circle r="5.941528931882106" cx="323.7195142861098" cy="771.9789064563382" opacity="0.8085166177670867"></circle><circle r="4.242488750565192" cx="364.1669769793921" cy="148.48482694031674" opacity="0.8661572866311601"></circle><circle r="7.413019865536571" cx="459.27126139920813" cy="278.2803802661927" opacity="0.27332575955506566"></circle><circle r="9.43886797651557" cx="71.00382016348213" cy="625.7778748632252" opacity="0.19863100946368212"></circle><circle r="6.891261428655428" cx="543.4772424000062" cy="22.38286165026511" opacity="0.9019556511622487"></circle><circle r="5.501442020275531" cx="294.3499281215201" cy="228.18428515325368" opacity="0.6700782264576497"></circle><circle r="9.222973565304976" cx="585.9866287165646" cy="132.88526158112467" opacity="0.8780898774150617"></circle><circle r="8.754497636284878" cx="364.74309417658947" cy="773.98617745724" opacity="0.8778556856738523"></circle><circle r="5.587954744188049" cx="55.08021705766706" cy="157.04065936246528" opacity="0.22225266522441597"></circle><circle r="11.267290265084581" cx="652.2159709331523" cy="458.62795304862794" opacity="0.1948802763709906"></circle><circle r="7.783836719977587" cx="385.7449886578137" cy="198.96935523863536" opacity="0.838088269811409"></circle><circle r="6.478198056711392" cx="784.18110716408" cy="114.55878747821838" opacity="0.25926751170038936"></circle><circle r="4.931180985576058" cx="283.4692805020165" cy="116.60469855855648" opacity="0.47281227686818594"></circle><circle r="4.291885425727741" cx="789.8396293266719" cy="84.1269839133729" opacity="0.3320757874957494"></circle><circle r="7.3971731010047215" cx="539.0422747347078" cy="612.1391912707959" opacity="0.47536480053159114"></circle><circle r="4.96370043101768" cx="20.094991979732182" cy="148.08105549967868" opacity="0.5151251625277802"></circle><circle r="6.463086651453416" cx="321.0461314295846" cy="89.76275317766382" opacity="0.11147499414625732"></circle><circle r="4.978852600243664" cx="785.2308369697663" cy="353.63483457012836" opacity="0.2966575804427168"></circle><circle r="8.265354018142752" cx="613.2386720626172" cy="727.2947726977637" opacity="0.5275170145148814"></circle><circle r="2.131356936547225" cx="699.6251231582829" cy="792.0159677440337" opacity="0.7949793606233697"></circle><circle r="12.530481356504584" cx="467.2538707283455" cy="89.58456579486601" opacity="0.9482556057505369"></circle><circle r="6.5634730857090124" cx="403.54376598395754" cy="430.8428565503233" opacity="0.9528428552439061"></circle><circle r="5.197623778707156" cx="308.4662666073092" cy="476.6379270922178" opacity="0.47557096969381873"></circle></g></svg>